<svg viewBox="0 0 338 100" fill="none" xmlns="http://www.w3.org/2000/svg"><path d="M325.481 0H12.519C5.605 0 0 5.596 0 12.5v75C0 94.404 5.605 100 12.518 100h312.963C332.395 100 338 94.404 338 87.5v-75C338 5.596 332.395 0 325.481 0Z" fill="#000"/><path d="M325.481 2c5.809 0 10.516 4.7 10.516 10.5v75c0 5.8-4.707 10.5-10.516 10.5H12.519c-5.81 0-10.516-4.7-10.516-10.5v-75C2.003 6.7 6.71 2 12.518 2h312.963Zm0-2H12.519C5.633 0 0 5.625 0 12.5v75C0 94.375 5.633 100 12.518 100h312.963C332.367 100 338 94.375 338 87.5v-75C338 5.625 332.367 0 325.481 0Z" fill="#A6A6A6"/><path d="M118.726 25.6c0 2.1-.626 3.775-1.878 5-1.402 1.475-3.23 2.225-5.508 2.225-2.279 0-4.031-.75-5.533-2.25-1.503-1.5-2.254-3.375-2.254-5.575s.751-4.075 2.254-5.575c1.502-1.5 3.354-2.275 5.533-2.275 1.101 0 2.153.2 3.129.575.977.4 1.778.95 2.404 1.65l-1.377 1.375a4.42 4.42 0 0 0-1.803-1.3c-.726-.325-1.527-.475-2.353-.475-1.628 0-3.03.575-4.156 1.7-1.127 1.15-1.678 2.575-1.678 4.3 0 1.725.551 3.15 1.678 4.3 1.126 1.125 2.503 1.7 4.156 1.7 1.502 0 2.729-.425 3.73-1.25 1.002-.825 1.578-2 1.728-3.45h-5.458v-1.8h7.285c.076.4.101.775.101 1.125Zm11.542-8.1v1.85h-6.835v4.75h6.159v1.8h-6.159v4.75h6.835v1.85h-8.763v-15h8.763Zm8.137 1.85V32.5h-1.928V19.35h-4.206V17.5h10.315v1.85h-4.206.025ZM152 32.5h-1.928v-15H152v15Zm8.563-13.15V32.5h-1.928V19.35h-4.207V17.5h10.316v1.85h-4.207.026ZM186.501 25c0 2.225-.751 4.075-2.228 5.575-1.503 1.5-3.33 2.25-5.509 2.25-2.178 0-4.005-.75-5.508-2.25-1.477-1.5-2.228-3.35-2.228-5.575s.751-4.075 2.228-5.575c1.477-1.5 3.305-2.275 5.508-2.275 2.204 0 4.006.75 5.509 2.275 1.477 1.5 2.228 3.35 2.228 5.55V25Zm-13.47 0c0 1.725.551 3.175 1.627 4.3 1.102 1.125 2.479 1.7 4.106 1.7 1.628 0 3.005-.575 4.081-1.7 1.102-1.125 1.653-2.55 1.653-4.3s-.551-3.175-1.653-4.3c-1.101-1.125-2.453-1.7-4.081-1.7-1.627 0-3.004.575-4.106 1.7-1.101 1.125-1.627 2.575-1.627 4.3Zm18.102 7.5h-1.928v-15h2.353l7.311 11.675h.075l-.075-2.9V17.5h1.928v15h-2.003l-7.636-12.225h-.075l.075 2.9v9.35l-.025-.025Z" fill="#fff" stroke="#fff" stroke-width=".2" stroke-miterlimit="10"/><path d="M170.602 54.375c-5.883 0-10.69 4.475-10.69 10.625s4.807 10.625 10.69 10.625c5.884 0 10.691-4.5 10.691-10.625s-4.807-10.625-10.691-10.625Zm0 17.075c-3.229 0-6.009-2.65-6.009-6.45 0-3.8 2.78-6.45 6.009-6.45 3.23 0 6.009 2.625 6.009 6.45s-2.779 6.45-6.009 6.45Zm-23.309-17.075c-5.884 0-10.691 4.475-10.691 10.625s4.807 10.625 10.691 10.625 10.691-4.5 10.691-10.625-4.807-10.625-10.691-10.625Zm0 17.075c-3.23 0-6.009-2.65-6.009-6.45 0-3.8 2.779-6.45 6.009-6.45 3.23 0 6.009 2.625 6.009 6.45s-2.779 6.45-6.009 6.45Zm-27.741-13.825v4.5h10.816c-.326 2.525-1.177 4.4-2.454 5.675-1.577 1.575-4.031 3.3-8.337 3.3-6.66 0-11.868-5.35-11.868-12s5.208-12 11.868-12c3.58 0 6.209 1.4 8.137 3.225l3.18-3.175c-2.704-2.575-6.285-4.55-11.342-4.55-9.114 0-16.775 7.4-16.775 16.525 0 9.125 7.661 16.525 16.775 16.525 4.932 0 8.638-1.6 11.542-4.625C134.073 68.05 135 63.85 135 60.475c0-1.05-.075-2.025-.251-2.825h-15.197v-.025Zm113.443 3.5c-.877-2.375-3.581-6.775-9.114-6.775-5.533 0-10.04 4.3-10.04 10.625 0 5.95 4.507 10.625 10.566 10.625 4.882 0 7.711-2.975 8.863-4.7l-3.63-2.425c-1.202 1.775-2.855 2.95-5.233 2.95-2.379 0-4.081-1.075-5.158-3.225l14.246-5.875-.475-1.2h-.025Zm-14.522 3.55c-.125-4.1 3.18-6.2 5.558-6.2 1.853 0 3.43.925 3.956 2.25l-9.514 3.95Zm-11.567 10.3h4.682v-31.25h-4.682v31.25Zm-7.661-18.25h-.15c-1.052-1.25-3.055-2.375-5.609-2.375-5.333 0-10.215 4.675-10.215 10.675 0 6 4.882 10.6 10.215 10.6 2.529 0 4.557-1.125 5.609-2.425h.15v1.525c0 4.075-2.178 6.25-5.684 6.25-2.854 0-4.632-2.05-5.358-3.775l-4.081 1.7c1.177 2.825 4.282 6.275 9.439 6.275 5.483 0 10.115-3.225 10.115-11.075V55h-4.431v1.725Zm-5.358 14.7c-3.23 0-5.934-2.7-5.934-6.4s2.704-6.475 5.934-6.475 5.683 2.75 5.683 6.475c0 3.725-2.503 6.4-5.683 6.4Zm61.04-27.7h-11.191v31.25h4.681v-11.85h6.535c5.183 0 10.265-3.75 10.265-9.7 0-5.95-5.082-9.7-10.265-9.7h-.025Zm.125 15.075h-6.635V48.075h6.635c3.505 0 5.483 2.9 5.483 5.35 0 2.45-1.978 5.35-5.483 5.35v.025Zm28.868-4.5c-3.38 0-6.885 1.5-8.337 4.775l4.156 1.725c.876-1.725 2.529-2.3 4.256-2.3 2.404 0 4.882 1.45 4.907 4.025v.325c-.851-.475-2.654-1.2-4.882-1.2-4.481 0-9.013 2.45-9.013 7.025 0 4.175 3.655 6.875 7.761 6.875 3.13 0 4.883-1.4 5.959-3.05h.15v2.4h4.507V62.925c0-5.55-4.156-8.65-9.514-8.65l.05.025Zm-.576 17.125c-1.527 0-3.655-.775-3.655-2.65 0-2.4 2.654-3.325 4.957-3.325 2.053 0 3.03.45 4.256 1.05-.35 2.9-2.854 4.95-5.558 4.95v-.025Zm26.489-16.45-5.358 13.55h-.15l-5.558-13.55h-5.032l8.337 18.95-4.757 10.525h4.882l12.844-29.475h-5.208Zm-42.087 20h4.682v-31.25h-4.682v31.25Z" fill="#fff"/><path d="M51.877 48.55 25.212 76.8a7.202 7.202 0 0 0 6.96 5.325c1.328 0 2.58-.35 3.656-1l.075-.05L65.897 63.8 51.852 48.525l.025.025Z" fill="#EA4335"/><path d="M78.842 43.75h-.025l-12.945-7.525L51.276 49.2l14.646 14.625L78.817 56.4c2.253-1.225 3.78-3.6 3.78-6.325s-1.502-5.1-3.755-6.3v-.025Z" fill="#FBBC04"/><path d="M25.212 23.2c-.15.6-.25 1.2-.25 1.85v49.9c0 .65.075 1.25.25 1.85l27.566-27.525L25.212 23.2Z" fill="#4285F4"/><path d="m52.077 50 13.795-13.775-29.969-17.35a7.192 7.192 0 0 0-3.73-1.025c-3.33 0-6.135 2.275-6.96 5.325l26.864 26.8V50Z" fill="#34A853"/></svg>