<?xml version="1.0" encoding="UTF-8" standalone="no"?>
<!-- Created with Inkscape (http://www.inkscape.org/) -->

<svg
   version="1.1"
   id="svg2"
   xml:space="preserve"
   width="1000"
   height="659.75104"
   viewBox="0 0 1000 659.75105"
   sodipodi:docname="Netmarble Keke.svg"
   inkscape:version="1.1.2 (b8e25be833, 2022-02-05)"
   xmlns:inkscape="http://www.inkscape.org/namespaces/inkscape"
   xmlns:sodipodi="http://sodipodi.sourceforge.net/DTD/sodipodi-0.dtd"
   xmlns="http://www.w3.org/2000/svg"
   xmlns:svg="http://www.w3.org/2000/svg"><defs
     id="defs6"><clipPath
       clipPathUnits="userSpaceOnUse"
       id="clipPath18"><path
         d="M 0,540 H 959.81 V 0 H 0 Z"
         id="path16" /></clipPath><radialGradient
       fx="0"
       fy="0"
       cx="0"
       cy="0"
       r="1"
       gradientUnits="userSpaceOnUse"
       gradientTransform="matrix(-10.424911,0,0,10.424927,651.44727,194.00879)"
       spreadMethod="pad"
       id="radialGradient920"><stop
         style="stop-opacity:1;stop-color:#ffffff"
         offset="0"
         id="stop914" /><stop
         style="stop-opacity:1;stop-color:#29abe2"
         offset="0.69051236"
         id="stop916" /><stop
         style="stop-opacity:1;stop-color:#29abe2"
         offset="1"
         id="stop918" /></radialGradient><clipPath
       clipPathUnits="userSpaceOnUse"
       id="clipPath930"><path
         d="M 0,540 H 959.81 V 0 H 0 Z"
         id="path928" /></clipPath><radialGradient
       fx="0"
       fy="0"
       cx="0"
       cy="0"
       r="1"
       gradientUnits="userSpaceOnUse"
       gradientTransform="matrix(-10.424759,0,0,10.424759,651.44727,154.30078)"
       spreadMethod="pad"
       id="radialGradient974"><stop
         style="stop-opacity:1;stop-color:#ffffff"
         offset="0"
         id="stop968" /><stop
         style="stop-opacity:1;stop-color:#29abe2"
         offset="0.69051236"
         id="stop970" /><stop
         style="stop-opacity:1;stop-color:#29abe2"
         offset="1"
         id="stop972" /></radialGradient><clipPath
       clipPathUnits="userSpaceOnUse"
       id="clipPath984"><path
         d="M 0,540 H 959.81 V 0 H 0 Z"
         id="path982" /></clipPath><clipPath
       clipPathUnits="userSpaceOnUse"
       id="clipPath1580"><path
         d="m 123.345,180.931 h 67.699 v -21.072 h -67.699 z"
         id="path1578" /></clipPath><clipPath
       clipPathUnits="userSpaceOnUse"
       id="clipPath1644"><path
         d="m 123.345,156.233 h 67.699 v -21.071 h -67.699 z"
         id="path1642" /></clipPath><clipPath
       clipPathUnits="userSpaceOnUse"
       id="clipPath1700"><path
         d="m 123.345,205.629 h 67.699 v -21.01 h -67.699 z"
         id="path1698" /></clipPath><clipPath
       clipPathUnits="userSpaceOnUse"
       id="clipPath1854"><path
         d="M 0,540 H 959.81 V 0 H 0 Z"
         id="path1852" /></clipPath><clipPath
       clipPathUnits="userSpaceOnUse"
       id="clipPath1862"><path
         d="m -20,-560.066 h -959.811 v 540 H -20 Z"
         id="path1860" /></clipPath><clipPath
       clipPathUnits="userSpaceOnUse"
       id="clipPath1870"><path
         d="M -1104.873,-648.226 H 105.065 V 32.498 h -1209.938 z"
         id="path1868" /></clipPath></defs><sodipodi:namedview
     id="namedview4"
     pagecolor="#ffffff"
     bordercolor="#666666"
     borderopacity="1.0"
     inkscape:pageshadow="2"
     inkscape:pageopacity="0.0"
     inkscape:pagecheckerboard="0"
     showgrid="false"
     inkscape:zoom="0.5"
     inkscape:cx="455"
     inkscape:cy="260"
     inkscape:window-width="1366"
     inkscape:window-height="705"
     inkscape:window-x="-8"
     inkscape:window-y="-8"
     inkscape:window-maximized="1"
     inkscape:current-layer="g8" /><g
     id="g8"
     inkscape:groupmode="layer"
     inkscape:label="2018_netmarble_font_guide_V1.0"
     transform="matrix(1.3333333,0,0,-1.3333333,-83.195407,661.08669)"><g
       id="g1794"><g
         id="g6614"
         transform="matrix(2.2268231,0,0,2.2268231,51.749198,-497.21459)"><path
           d="m 183.00372,445.87212 v 0 c -13.63215,1.76889 -43.73984,-31.56227 -40.09973,-35.5167 2.28055,-2.49983 59.25784,-11.55626 62.18163,-9.92625 4.83155,2.63141 -8.94679,43.18433 -22.0819,45.44295"
           style="fill:#5c3c2f;fill-opacity:1;fill-rule:nonzero;stroke:none;stroke-width:7.30947"
           id="path1404" /><path
           d="m 230.74404,407.36877 v 0 c -5.75255,8.68365 -44.9386,9.09298 -45.75726,4.64882 -0.4678,-2.79222 24.58905,-43.22818 27.31548,-43.92989 4.33451,-1.05256 23.96774,30.49509 18.44178,39.28107"
           style="fill:#5c3c2f;fill-opacity:1;fill-rule:nonzero;stroke:none;stroke-width:7.30947"
           id="path1408" /><path
           d="m 238.65288,366.42407 v 0 c -0.35816,4.54649 -15.21831,12.55035 -18.03245,13.70525 -6.16919,2.44136 -3.42814,-34.76382 1.78351,-35.64827 1.14758,-0.22659 4.25411,2.35365 8.881,9.60464 4.44415,6.92938 7.51413,9.85316 7.36794,12.33838"
           style="fill:#5c3c2f;fill-opacity:1;fill-rule:nonzero;stroke:none;stroke-width:7.30947"
           id="path1412" /><path
           d="m 157.82042,306.59974 c -4.13716,-9.01257 -11.49048,-15.25486 -19.39932,-13.18628 -7.76997,2.06858 -11.90712,13.69794 -9.9555,23.51456 1.97356,9.76544 11.62206,13.49327 20.83198,9.64118 7.53606,-3.14307 12.59421,-10.89841 8.52284,-19.96946"
           style="fill:#f8c800;fill-opacity:1;fill-rule:nonzero;stroke:none;stroke-width:7.30947"
           id="path1416" /><path
           d="m 167.19993,308.56233 c 0.51166,-9.94818 7.25099,-19.71363 16.04428,-20.31301 9.28302,-0.62861 18.77802,7.57992 19.72094,20.53229 0.70902,9.94819 -5.92798,16.61442 -17.23572,16.24164 -11.10308,-0.40202 -18.96076,-6.5639 -18.5295,-16.46092"
           style="fill:#f8c800;fill-opacity:1;fill-rule:nonzero;stroke:none;stroke-width:7.30947"
           id="path1420" /><path
           d="m 236.58284,321.66821 c 2.88724,-1.8566 3.5524,-6.36654 -5.3286,-9.9628 -9.36343,-3.81554 -27.57862,-2.84338 -35.35589,9.78006 -3.12845,5.05084 -5.08739,16.17585 1.71042,23.38299 7.7261,8.12081 19.68439,7.97462 25.82434,-1.1549 4.08599,-6.12533 3.45738,-15.8323 13.14973,-22.04535"
           style="fill:#ffe100;fill-opacity:1;fill-rule:nonzero;stroke:none;stroke-width:7.30947"
           id="path1424" /><path
           d="m 125.18512,366.18139 c 1.24261,3.45738 -3.11383,7.28754 -7.63839,1.12566 -2.05396,-2.79953 -2.5437,-5.78179 -6.86359,-11.8121 -3.99828,-5.62829 -9.94087,-14.00494 -7.65301,-22.63742 2.20015,-8.25238 12.17757,-11.01536 19.09963,-4.72191 2.99688,2.73374 3.44276,8.43512 1.85661,14.58969 -1.52768,5.69408 -2.15629,13.36171 1.19875,23.45608"
           style="fill:#f8c800;fill-opacity:1;fill-rule:nonzero;stroke:none;stroke-width:7.30947"
           id="path1428" /><path
           d="m 222.49238,383.27019 c -5.06546,21.21207 -20.72965,41.20346 -50.93967,41.3862 -20.86852,0.10233 -34.77844,-8.93948 -42.468,-19.58937 -7.14134,-9.87509 -9.82392,-20.78081 -11.09577,-34.09866 -0.21197,-2.05396 -1.55691,-8.21584 -2.90916,-13.01085 -2.14168,-7.3387 -3.11384,-12.06062 -2.33172,-20.13027 2.0832,-21.19745 24.53057,-40.37018 61.37758,-36.18917 19.48704,1.28647 30.01998,6.92207 38.51358,14.03418 9.45114,7.90884 14.10727,19.21658 13.2813,32.11779 -0.4605,8.89562 -0.74557,24.35514 -3.42814,35.48015"
           style="fill:#ffe100;fill-opacity:1;fill-rule:nonzero;stroke:none;stroke-width:7.30947"
           id="path1432" /><path
           d="m 226.60396,345.70904 c -0.19736,4.91196 -0.57014,13.17166 -1.42535,21.04395 -0.59937,0.85521 -1.27184,1.63732 -1.84198,2.34634 -6.82704,8.58862 -13.66139,3.30388 -14.33386,-6.18381 -0.59938,-8.82983 0.37278,-16.59248 2.45598,-21.51906 2.68257,-6.23498 6.27883,-10.15285 9.8897,-12.63076 3.27464,-2.22939 6.79781,-2.81415 9.9555,-2.30979 -2.68989,3.5524 -3.90326,7.52144 -5.1678,11.13231 0.36548,2.60217 0.52629,5.29206 0.46781,8.12082"
           style="fill:#f6bd00;fill-opacity:1;fill-rule:nonzero;stroke:none;stroke-width:7.30947"
           id="path1436" /><path
           d="m 209.34339,366.12438 c 0.58476,9.48038 8.65441,14.7505 15.37912,6.22767 4.49532,-5.5552 12.76232,-14.91863 16.9141,-23.11254 2.98226,-5.78909 2.60948,-10.97881 -0.35816,-14.94054 -2.98227,-3.93981 -11.40277,-7.1779 -18.54412,-2.33903 -3.59626,2.52907 -7.06825,6.39578 -9.85316,12.63806 -2.09782,4.97775 -4.19563,12.62345 -3.53778,21.52638"
           style="fill:#ffe100;fill-opacity:1;fill-rule:nonzero;stroke:none;stroke-width:7.30947"
           id="path1440" /><path
           d="m 156.16483,378.47372 c -1.33032,-10.62065 -9.75083,-18.23712 -19.26044,-17.02375 -9.48038,1.19145 -16.04428,10.01397 -14.69203,20.66386 1.33032,10.6499 9.76545,18.84381 19.67708,17.65236 9.43652,-1.18413 15.68612,-10.62065 14.27539,-21.29247"
           style="fill:#ffffff;fill-opacity:1;fill-rule:nonzero;stroke:none;stroke-width:7.30947"
           id="path1444" /><path
           d="m 151.39613,374.41916 c -0.65785,-5.32129 -5.06546,-9.06374 -9.70697,-8.4936 -4.61227,0.64323 -7.87961,5.2482 -7.17059,10.60604 0.67247,5.30667 4.95582,9.18068 9.59733,8.56669 4.64151,-0.57014 7.98194,-5.33591 7.28023,-10.67913"
           style="fill:#5c3c2f;fill-opacity:1;fill-rule:nonzero;stroke:none;stroke-width:7.30947"
           id="path1448" /><path
           d="m 159.50525,381.08613 c -0.49704,-11.6586 7.1779,-21.07319 17.80586,-21.49714 10.64989,-0.40202 19.69901,8.33279 20.21067,19.9256 0.3874,11.66591 -7.25099,21.62871 -17.9155,21.7749 -10.69375,0.1535 -19.66977,-8.59593 -20.10103,-20.20336"
           style="fill:#ffffff;fill-opacity:1;fill-rule:nonzero;stroke:none;stroke-width:7.30947"
           id="path1452" /><path
           d="m 163.78787,375.18958 c -0.31431,-5.52596 3.5524,-10.0359 8.47898,-10.20401 4.92658,-0.14619 9.12221,3.93249 9.36343,9.5023 0.20466,5.46748 -3.61088,10.08706 -8.4936,10.2698 -4.91196,0.18274 -9.16607,-4.11523 -9.34881,-9.56809"
           style="fill:#5c3c2f;fill-opacity:1;fill-rule:nonzero;stroke:none;stroke-width:7.30947"
           id="path1456" /><path
           d="m 158.19174,350.41341 c 12.046,-0.0731 21.44597,2.60217 24.21626,3.57433 1.48382,0.52628 3.49393,1.33032 4.80963,1.48382 0.99409,0.0439 2.551,-0.13888 2.48522,-1.98817 0,-2.0028 -2.25863,-4.20295 -3.90326,-5.56982 -3.62549,-2.87993 -11.59281,-6.42502 -26.7965,-6.12533 -15.17445,0.38009 -22.95172,4.8608 -25.07878,6.40309 -2.18553,1.60078 -4.22487,4.12985 -4.58303,6.22036 -0.44588,1.97355 0.97947,2.27324 1.98086,2.19284 0.97216,-0.11695 2.17091,-0.68709 3.6255,-1.34494 1.55691,-0.62131 9.09297,-4.79501 23.2441,-4.84618"
           style="fill:#e34f4e;fill-opacity:1;fill-rule:nonzero;stroke:none;stroke-width:7.30947"
           id="path1460" /><path
           d="m 142.65913,345.49487 c -0.67247,-0.32893 -1.19875,-0.55552 -1.5423,-0.80404 4.13716,-1.39611 9.99204,-2.69719 17.88627,-2.90186 5.65752,-0.10964 10.29903,0.307 14.1365,1.05987 -2.08319,1.19145 -6.51273,3.12845 -14.27538,3.98366 -8.62517,0.8479 -14.57508,-0.72363 -16.20509,-1.33763"
           style="fill:#ed7e7d;fill-opacity:1;fill-rule:nonzero;stroke:none;stroke-width:7.30947"
           id="path1464" /><path
           d="m 138.66158,350.64878 c -2.42674,1.1549 -3.96904,0.27045 -5.03622,-1.21337 -0.13157,-0.24852 -0.27776,-0.48243 -0.44588,-0.65785 0.22659,-0.21198 0.49704,-0.40933 0.74557,-0.58476 0.96485,-0.74557 3.15038,-2.01741 6.62237,-3.28195 0.095,0.35085 0.21198,0.79673 0.28507,1.26454 0.31431,1.65925 0.40202,3.35504 -2.17091,4.47339"
           style="fill:#ffffff;fill-opacity:1;fill-rule:nonzero;stroke:none;stroke-width:7.30947"
           id="path1468" /><path
           d="m 178.3359,348.95006 c -2.6241,-0.86983 -2.66796,-2.57293 -2.57293,-4.26142 0.0585,-0.4605 0.0585,-0.90637 0.17543,-1.2353 3.36966,0.79673 5.82564,1.91508 7.77727,2.99688 -0.16812,0.25583 -0.28507,0.52628 -0.5409,0.81866 -0.84059,1.52768 -2.24401,2.59486 -4.83887,1.68118"
           style="fill:#ffffff;fill-opacity:1;fill-rule:nonzero;stroke:none;stroke-width:7.30947"
           id="path1472" /></g><g
         id="g6576"
         transform="matrix(1.2976574,0,0,1.2976574,-293.88433,-407.43377)"><path
           d="m 312.67584,384.227 c -8.3401,0 -13.39094,-1.61539 -19.95484,-6.83435 v 0.91368 c 0,2.48522 -3.15769,5.92067 -9.07105,5.92067 -5.92067,0 -9.09298,-3.43545 -9.09298,-5.92067 v -56.80186 c 0,-2.46329 3.17231,-5.87681 9.09298,-5.87681 5.91336,0 9.07105,3.41352 9.07105,5.87681 v 24.10662 c 0,15.47414 5.96452,23.14177 16.81177,23.14177 7.48489,0 9.91164,-6.27152 9.91164,-12.49919 v -34.7492 c 0,-2.36826 2.85069,-5.87681 9.01988,-5.87681 6.24228,0 9.13683,3.50855 9.13683,5.87681 v 34.45682 c 0,19.78673 -10.21863,28.26571 -24.92528,28.26571"
           style="fill:#5c3724;fill-opacity:1;fill-rule:nonzero;stroke:none;stroke-width:7.30947"
           id="path1476" /><path
           d="m 453.51098,384.227 h -12.62345 v 13.01085 c 0,2.50715 -3.165,5.89143 -9.01988,5.89143 -5.99376,0 -9.16607,-3.38428 -9.16607,-5.89143 v -48.82723 c 0,-8.21584 0,-27.36664 19.72825,-32.27861 1.82737,-0.33623 3.36966,-0.48242 4.65613,-0.48242 4.10061,0 6.46888,1.35956 8.3401,4.81694 1.92239,3.50123 1.29378,6.8709 0.95754,8.14274 -0.89175,-0.0731 -1.70311,-0.11695 -2.45598,-0.11695 -6.00107,0 -9.64119,1.91508 -11.45393,5.96453 -1.58616,3.57432 -1.58616,8.42781 -1.58616,14.04148 v 21.57754 h 10.94958 c 5.98645,0 9.95549,5.11663 9.95549,9.86778 0,2.79953 -1.27184,4.28335 -8.28162,4.28335"
           style="fill:#5c3724;fill-opacity:1;fill-rule:nonzero;stroke:none;stroke-width:7.30947"
           id="path1480" /><path
           d="m 767.48982,413.81426 c -5.96452,0 -9.07836,-3.37697 -9.07836,-5.81833 v -86.39789 c 0,-2.47791 3.11384,-5.94991 9.07836,-5.94991 5.91336,0 9.07836,3.472 9.07836,5.94991 v 86.39789 c 0,2.33902 -2.93841,5.81833 -9.07836,5.81833"
           style="fill:#5c3724;fill-opacity:1;fill-rule:nonzero;stroke:none;stroke-width:7.30947"
           id="path1484" /><path
           d="m 664.20122,384.227 c -9.82392,0 -26.4822,-6.46888 -26.4822,-32.08856 V 321.5995 c 0,-2.47791 3.15769,-5.94991 9.09298,-5.94991 5.91336,0 9.09298,3.472 9.09298,5.94991 v 27.35202 c 0,15.95656 3.50123,22.68127 20.08641,22.68127 0.34354,1.16951 1.01601,4.44416 -0.94292,7.94539 -2.30979,4.29066 -6.44695,4.64882 -10.84725,4.64882"
           style="fill:#5c3724;fill-opacity:1;fill-rule:nonzero;stroke:none;stroke-width:7.30947"
           id="path1488" /><path
           d="m 367.89594,359.4004 c 3.09921,6.61507 9.6485,9.36343 15.77383,9.36343 6.24228,0 11.79017,-2.18553 11.79017,-7.23638 0,-4.58303 -5.20434,-8.01117 -11.87789,-8.01117 -6.96592,0 -13.66139,3.88864 -15.68611,5.88412 m 45.72802,2.54369 c 0,10.39406 -9.56809,22.27926 -29.95419,22.27926 -25.49542,0 -36.95666,-18.41255 -36.95666,-34.72728 0,-16.96527 11.14693,-34.74189 37.04437,-34.74189 13.88799,0 23.89465,5.73793 25.35654,13.52251 0.58476,3.36967 -1.48382,6.53467 -3.20155,7.54337 -6.57852,-6.14726 -16.10275,-7.11211 -22.49853,-6.76856 -9.76545,0.52628 -18.18596,6.9513 -17.90089,15.78844 5.51134,-3.77168 12.79157,-5.16779 18.15672,-5.16779 16.35127,0 29.95419,8.1062 29.95419,22.27194"
           style="fill:#5c3724;fill-opacity:1;fill-rule:nonzero;stroke:none;stroke-width:7.30947"
           id="path1492" /><path
           d="m 822.582,368.76529 c 6.26421,0 11.79017,-2.18553 11.79017,-7.23637 0,-4.58304 -5.21165,-8.01118 -11.81941,-8.01118 -6.99516,0 -13.70525,3.88133 -15.72997,5.88412 3.13576,6.61507 9.67773,9.36343 15.75921,9.36343 m 22.25732,-32.94376 c -6.55659,-6.15457 -16.08813,-7.11211 -22.48391,-6.77588 -9.76545,0.53359 -18.17865,6.95861 -17.9155,15.79576 5.51864,-3.77169 12.80618,-5.16779 18.14209,-5.16779 16.3732,0 29.93957,8.10619 29.93957,22.26463 0,10.39406 -9.52423,22.28656 -29.93957,22.28656 -25.46618,0 -36.92011,-18.41254 -36.92011,-34.73458 0,-16.95796 11.125,-34.74189 37.02244,-34.74189 13.90261,0 23.90927,5.74524 25.36385,13.52982 0.58476,3.36966 -1.52768,6.52735 -3.20886,7.54337"
           style="fill:#5c3724;fill-opacity:1;fill-rule:nonzero;stroke:none;stroke-width:7.30947"
           id="path1496" /><path
           d="m 524.65036,384.227 c -6.7978,-0.0292 -12.22143,-1.95894 -16.23432,-5.24089 -3.99828,3.28195 -9.42191,5.21165 -16.22702,5.24089 -16.51939,-0.0731 -24.87411,-11.17617 -24.87411,-26.15327 v -36.87626 c 0,-2.33902 2.98226,-5.55519 8.65441,-5.55519 5.62098,0 8.62517,3.21617 8.62517,5.55519 v 37.17595 c 0,6.19112 2.66795,10.39406 7.59453,10.39406 4.96313,0 7.60916,-4.20294 7.60916,-10.39406 v -0.29969 -36.87626 c 0,-2.33902 3.0115,-5.55519 8.60324,-5.55519 h 0.0146 c 5.6429,0 8.62517,3.21617 8.62517,5.55519 v 36.87626 0.29969 c 0,6.19112 2.65333,10.39406 7.60915,10.39406 4.95582,0 7.62377,-4.20294 7.62377,-10.39406 v -37.17595 c 0,-2.33902 2.98227,-5.55519 8.61055,-5.55519 5.60636,0 8.61786,3.21617 8.61786,5.55519 v 36.87626 c 0,14.9771 -8.34741,26.08018 -24.85218,26.15327"
           style="fill:#5c3724;fill-opacity:1;fill-rule:nonzero;stroke:none;stroke-width:7.30947"
           id="path1500" /><path
           d="m 605.99667,350.16343 c -0.59938,-11.17617 -6.84166,-20.83198 -17.47693,-19.81596 -8.23777,0.76018 -13.15704,9.61195 -11.61474,20.53229 1.49844,10.93496 8.31817,18.60259 17.09684,17.88626 8.58131,-0.47511 12.62344,-7.67494 11.99483,-18.60259 m 18.24443,-7.16328 v 8.94679 c 0,22.19885 -16.0589,32.2786 -30.90443,32.2786 -20.50305,0 -34.70534,-16.27087 -34.70534,-35.77253 0,-20.89045 13.3617,-33.70394 30.06383,-33.70394 12.17757,0 19.15811,4.88272 23.65344,9.23185 1.25722,-2.20015 2.33172,-3.72782 3.38428,-5.02891 1.71041,-2.06127 3.64011,-3.07729 5.89874,-3.07729 1.21337,0 2.50714,0.28507 3.89594,0.89907 2.6972,1.16951 4.40761,2.87993 4.98506,5.03622 0.57014,2.17091 -0.14619,4.26873 -1.01602,5.51134 -3.08459,4.62689 -5.2555,11.05191 -5.2555,15.6788"
           style="fill:#5c3724;fill-opacity:1;fill-rule:nonzero;stroke:none;stroke-width:7.30947"
           id="path1504" /><path
           d="m 731.08503,350.16343 c -0.614,-11.17617 -6.84166,-20.83198 -17.49155,-19.81596 -8.30356,0.76018 -13.2009,9.61195 -11.67322,20.53229 1.52768,10.93496 8.34741,18.60259 17.1407,17.88626 8.53745,-0.47511 12.62345,-7.67494 12.02407,-18.60259 m -12.70385,34.06211 c -6.22767,0 -11.79748,-1.41073 -16.5194,-3.9398 v 27.71018 c 0,2.33903 -2.9384,5.81834 -9.13683,5.81834 -5.92797,0 -9.04912,-3.37697 -9.04912,-5.81834 v -59.54291 c 0,-20.89045 13.36171,-33.70394 30.04922,-33.70394 23.60957,0 35.57517,18.13478 35.57517,37.19787 0,20.68579 -12.46264,32.2786 -30.91904,32.2786"
           style="fill:#5c3724;fill-opacity:1;fill-rule:nonzero;stroke:none;stroke-width:7.30947"
           id="path1508" /></g></g></g></svg>
